<?xml version="1.0" standalone="no"?><!DOCTYPE svg PUBLIC "-//W3C//DTD SVG 1.1//EN" "http://www.w3.org/Graphics/SVG/1.1/DTD/svg11.dtd"><svg t="1612749760962" class="icon" viewBox="0 0 1024 1024" version="1.1" xmlns="http://www.w3.org/2000/svg" p-id="2559" data-darkreader-inline-fill="" xmlns:xlink="http://www.w3.org/1999/xlink" width="32" height="32"><defs><style type="text/css"></style></defs><path d="M372.297 820.753c-11.303 0-22.268-4.522-30.281-12.535L239.975 706.176c-8.139-8.138-12.458-18.946-12.161-30.434 0.298-11.539 5.437-22.638 14.098-30.448 36.641-33.04 56.528-83.648 66.759-120.285 12.114-43.381 14.838-81.717 14.221-92.545-2.478-43.48 3.935-86.146 19.059-126.811 15.658-42.102 39.823-79.675 71.823-111.675 31.945-31.945 69.446-56.083 111.464-71.744 40.582-15.126 83.166-21.571 126.578-19.162 43.303 2.406 84.791 13.496 123.312 32.962 40.216 20.323 75.138 48.804 103.795 84.651 42.11 52.675 66.053 119.439 67.417 187.995 1.366 68.658-19.983 136.269-60.115 190.377-34.019 45.867-79.238 81.562-130.77 103.226-49.268 20.711-103.489 28.428-156.808 22.308-11.26-1.29-42.162-1.008-78.521 9.313-46.306 13.147-85.073 37.359-115.221 71.963-7.871 9.035-19.226 14.452-31.153 14.862-0.485 0.015-0.971 0.024-1.455 0.024z m-1.998-40.82c0.571 0.571 1.274 0.859 2.079 0.818 0.638-0.021 1.567-0.241 2.369-1.161 78.592-90.208 191.561-98.97 228.461-94.74 46.508 5.34 93.793-1.387 136.745-19.443 44.925-18.886 84.395-50.069 114.145-90.179 34.885-47.035 53.441-105.9 52.25-165.753-1.19-59.801-22.025-117.978-58.669-163.813-25.051-31.336-55.53-56.209-90.592-73.927-33.565-16.962-69.73-26.626-107.49-28.725-37.871-2.104-75.007 3.516-110.389 16.705-36.604 13.644-69.29 34.688-97.15 62.547-27.908 27.908-48.975 60.656-62.616 97.334-13.186 35.455-18.776 72.663-16.614 110.593 0.907 15.929-2.534 58.677-15.631 105.579-11.655 41.736-34.734 99.771-78.498 139.234-0.76 0.685-0.889 1.404-0.898 1.773-0.015 0.564 0.211 0.871 0.458 1.117l102.04 102.041z" p-id="2560"></path><path d="M182.428 973.92c-14.39 0.001-28.774-5.476-39.729-16.43-9.731-9.731-15.14-22.172-16.225-34.917-13.205-1.104-25.47-6.779-34.947-16.256-10.612-10.612-16.456-24.722-16.456-39.729s5.844-29.116 16.456-39.729c13.129-13.129 31.773-18.645 49.569-15.453L269.6 682.904l96.514 96.514L237.61 907.921c3.189 17.795-2.324 36.439-15.455 49.569-10.951 10.951-25.341 16.428-39.727 16.43z m-11.444-67.603c-6.311 6.31-6.311 16.578 0 22.888 6.311 6.312 16.578 6.312 22.888 0 4.77-4.769 5.992-12.142 3.042-18.347l-6.062-12.748 118.693-118.692-39.945-39.945-118.693 118.692-12.749-6.062c-6.205-2.952-13.577-1.729-18.346 3.042-6.31 6.31-6.31 16.577 0 22.887 6.311 6.311 16.577 6.311 22.888 0l28.284 28.285zM704.155 306.739a19.943 19.943 0 0 1-14.143-5.858c-7.81-7.811-7.81-20.474 0-28.284l23.249-23.249c7.811-7.811 20.475-7.811 28.285 0 7.81 7.811 7.81 20.474 0 28.284l-23.249 23.249a19.937 19.937 0 0 1-14.142 5.858zM631.348 472.544a19.94 19.94 0 0 1-14.142-5.858c-7.811-7.81-7.812-20.474-0.001-28.284l23.249-23.25c7.811-7.811 20.474-7.811 28.284 0 7.811 7.81 7.812 20.474 0.001 28.284l-23.249 23.25a19.939 19.939 0 0 1-14.142 5.858zM785.527 500.688a19.938 19.938 0 0 1-14.143-5.858c-7.811-7.811-7.81-20.474 0.001-28.284l23.25-23.25c7.81-7.81 20.473-7.811 28.284 0s7.81 20.474-0.001 28.284l-23.25 23.25a19.931 19.931 0 0 1-14.141 5.858zM435.563 449.294a19.937 19.937 0 0 1-14.142-5.858c-7.811-7.811-7.811-20.474 0-28.284l23.25-23.25c7.811-7.811 20.474-7.811 28.284 0s7.811 20.474 0 28.284l-23.25 23.25a19.933 19.933 0 0 1-14.142 5.858zM571.389 621.83a19.94 19.94 0 0 1-14.142-5.857c-7.811-7.811-7.812-20.474-0.001-28.284l23.249-23.25c7.811-7.811 20.474-7.812 28.284-0.001s7.812 20.474 0.001 28.284l-23.249 23.25a19.939 19.939 0 0 1-14.142 5.858zM521.83 316.528a19.933 19.933 0 0 1-14.142-5.858c-7.811-7.811-7.811-20.474 0-28.284l23.25-23.25c7.81-7.81 20.473-7.811 28.284 0s7.81 20.474-0.001 28.284l-23.25 23.25a19.935 19.935 0 0 1-14.141 5.858z" p-id="2561"></path></svg>