<?xml version="1.0" standalone="no"?><!DOCTYPE svg PUBLIC "-//W3C//DTD SVG 1.1//EN" "http://www.w3.org/Graphics/SVG/1.1/DTD/svg11.dtd"><svg t="1612750595762" class="icon" viewBox="0 0 1024 1024" version="1.1" xmlns="http://www.w3.org/2000/svg" p-id="1419" data-darkreader-inline-fill="" xmlns:xlink="http://www.w3.org/1999/xlink" width="32" height="32"><defs><style type="text/css">[data-darkreader-inline-fill] { fill: var(--darkreader-inline-fill)  !important; }
</style></defs><path d="M416 128h-256a32 32 0 0 0-32 32v256a32 32 0 0 0 32 32h256a32 32 0 0 0 32-32v-256a32 32 0 0 0-32-32zM384 384H192V192h192z m416-256h-256a32 32 0 0 0-32 32v256a32 32 0 0 0 32 32h256a32 32 0 0 0 32-32v-256a32 32 0 0 0-32-32zM768 384H576V192h192zM416 512h-256a32 32 0 0 0-32 32v256a32 32 0 0 0 32 32h256a32 32 0 0 0 32-32v-256a32 32 0 0 0-32-32zM384 768H192V576h192zM320 320H256V256h64z m384 0h-64V256h64z m-384 384H256v-64h64z m448 64h64v64h-64z m0-64v64h-64v-64z m-64-32a32 32 0 0 1-32 32H576v64h32a32 32 0 0 1 0 64h-64a32 32 0 0 1-32-32v-128a32 32 0 0 1 32-32H640V576H544a32 32 0 0 1 0-64h128a32 32 0 0 1 32 32z m128-128v128a32 32 0 0 1-64 0v-128a32 32 0 0 1 64 0z" fill="#111111" p-id="1420" data-darkreader-inline-fill="" style="--darkreader-inline-fill:#0d0e0e;"></path></svg>