<?xml version="1.0" encoding="utf-8"?>
<!-- Generator: Adobe Illustrator 24.0.0, SVG Export Plug-In . SVG Version: 6.00 Build 0)  -->
<svg version="1.1" id="图层_1" xmlns="http://www.w3.org/2000/svg" xmlns:xlink="http://www.w3.org/1999/xlink" x="0px" y="0px"
	 viewBox="0 0 20 20" style="enable-background:new 0 0 20 20;" xml:space="preserve">
<style type="text/css">
	.st0{fill:#579EF8;}
</style>
<title>check-pass</title>
<path class="st0" d="M10,0C4.5,0,0,4.5,0,10s4.5,10,10,10s10-4.5,10-10S15.5,0,10,0z M14.5,13c0.4,0.4,0.4,1.1,0,1.5l0,0
	c-0.4,0.4-1.1,0.4-1.5,0l-3-3l-3,3c-0.4,0.4-1.1,0.4-1.5,0s-0.4-1.1,0-1.5l3-3l-3-3c-0.4-0.4-0.4-1.1,0-1.5s1.1-0.4,1.5,0l3,3l3-3
	c0.4-0.4,1.1-0.4,1.5,0s0.4,1.1,0,1.5l-3,3L14.5,13z"/>
</svg>
