<?xml version="1.0" encoding="UTF-8"?>
<svg width="48px" height="48px" viewBox="0 0 48 48" version="1.1" xmlns="http://www.w3.org/2000/svg" xmlns:xlink="http://www.w3.org/1999/xlink">
    <title>favicon</title>
    <defs>
        <polygon id="path-1" points="0 0.592427907 24.7242002 0.592427907 24.7242002 27.9998698 0 27.9998698"></polygon>
        <polygon id="path-3" points="0.614247162 0.573023256 27.4106977 0.573023256 27.4106977 27.9875628 0.614247162 27.9875628"></polygon>
    </defs>
    <g id="页面-1" stroke="none" stroke-width="1" fill="none" fill-rule="evenodd">
        <g id="编组" transform="translate(4.000000, 10.000000)">
            <g>
                <mask id="mask-2" fill="white">
                    <use xlink:href="#path-1"></use>
                </mask>
                <g id="Clip-2"></g>
                <path d="M11.84375,22.8491721 C10.85625,23.1682419 9.82796053,23.3375442 8.79506579,23.3375442 L0.926644737,23.3375442 L-0.000328947368,27.9998698 L7.86151316,27.9998698 C10.1516447,27.9998698 12.4180921,27.452893 14.5161184,26.4702884 C13.3950658,25.4538233 12.4970395,24.2361488 11.84375,22.8491721 M24.1924342,8.11335814 C24.0667763,7.70312558 23.9141447,7.29940465 23.7391447,6.9152186 C23.1509868,5.58684651 22.2996711,4.41475349 21.2365132,3.45819535 C20.6345395,2.91056744 19.9713816,2.4352186 19.2457237,2.0380093 C17.5667763,1.11335814 15.5667763,0.592427907 13.3430921,0.592427907 L5.47467105,0.592427907 L4.54111842,5.25475349 L12.4095395,5.25475349 C13.3904605,5.25475349 14.3055921,5.40452093 15.13125,5.69103256 C15.9634868,5.97754419 16.6996711,6.39428837 17.34375,6.9152186 C18.56875,7.89847442 19.4128289,9.27893953 19.7476974,10.8944744 C19.8595395,11.4147535 19.9213816,11.9617302 19.9154605,12.5282419 C19.9213816,13.1012651 19.8601974,13.6938233 19.7371711,14.2994047 C19.6095395,14.9440558 19.4167763,15.5821953 19.1615132,16.1942884 C19.1753289,16.5003349 19.2161184,16.7998698 19.2786184,17.0863814 C19.5463816,18.3431256 20.1878289,19.4116837 21.1430921,20.1794047 C21.3101974,20.3161488 21.4845395,20.4398698 21.6674342,20.5570791 C23.0292763,18.6882419 24.0029605,16.5589395 24.4542763,14.2994047 C24.9009868,12.0724279 24.7792763,9.96982326 24.1924342,8.11335814" id="Fill-1" fill="#D80305" mask="url(#mask-2)"></path>
            </g>
            <g transform="translate(12.000000, 0.000000)">
                <mask id="mask-4" fill="white">
                    <use xlink:href="#path-3"></use>
                </mask>
                <g id="Clip-4"></g>
                <path d="M17.3051721,0.57295814 C15.0391256,0.57295814 12.7952186,1.11993488 10.7186605,2.10384186 C11.8275907,3.12551628 12.7229395,4.3431907 13.3695442,5.73016744 C14.3469395,5.41174884 15.3581953,5.24179535 16.3805209,5.24179535 L26.4865674,5.24179535 L27.4112186,0.57295814 L17.3051721,0.57295814 Z M12.8023814,23.324586 C11.8321488,23.324586 10.9270326,23.168307 10.1098233,22.8817953 C9.28610233,22.6017953 8.55614884,22.1850512 7.91866047,21.6647721 C6.70814884,20.6743535 5.87856744,19.2938884 5.53996279,17.6855163 C5.42991628,17.164586 5.36805581,16.6182605 5.37391628,16.0517488 C5.36740465,15.4787256 5.42926512,14.8855163 5.54973023,14.2870977 C5.67735814,13.6359349 5.86749767,13.0036558 6.11884651,12.3980744 C6.10582326,12.0861674 6.0648,11.7866326 6.00489302,11.4936093 C5.73986977,10.2297023 5.10433488,9.16830698 4.16535814,8.40058605 C3.99996279,8.26384186 3.82154419,8.13295814 3.63986977,8.02226047 C2.29066047,9.8976093 1.32693953,12.0269116 0.880893023,14.2870977 C0.439404651,16.5075628 0.559869767,18.6101674 1.14070698,20.4659814 C1.26507907,20.8768651 1.4168,21.2799349 1.58935814,21.6647721 C2.1728,22.9859814 3.01475349,24.164586 4.07289302,25.1217953 C4.66284651,25.6622605 5.3192186,26.1376093 6.03745116,26.5348186 C7.69986977,27.4594698 9.67810233,27.9875628 11.8790326,27.9875628 L21.9850791,27.9875628 L22.9084279,23.324586 L12.8023814,23.324586 Z" id="Fill-3" fill="#1D509D" mask="url(#mask-4)"></path>
            </g>
        </g>
    </g>
</svg>