<?xml version="1.0" encoding="UTF-8" standalone="no"?>
<!DOCTYPE svg PUBLIC "-//W3C//DTD SVG 1.1//EN" "http://www.w3.org/Graphics/SVG/1.1/DTD/svg11.dtd">
<!-- 由 Microsoft Visio, SVG Export 生成 favicon.svg 页-1 -->
<svg xmlns="http://www.w3.org/2000/svg" xmlns:xlink="http://www.w3.org/1999/xlink" xmlns:ev="http://www.w3.org/2001/xml-events"
		xmlns:v="http://schemas.microsoft.com/visio/2003/SVGExtensions/" width="1.08702in" height="1.00095in"
		viewBox="0 0 78.2653 72.0684" xml:space="preserve" color-interpolation-filters="sRGB" class="st7">
	<v:documentProperties v:langID="2052" v:metric="true" v:viewMarkup="false"/>

	<style type="text/css">
	<![CDATA[
		.st1 {visibility:visible}
		.st2 {fill:#5b9bd5;fill-opacity:0.22;filter:url(#filter_2);stroke:#5b9bd5;stroke-opacity:0.22}
		.st3 {fill:#5b9bd5;stroke:#c7c8c8;stroke-width:0.25}
		.st4 {fill:#feffff;stroke:#c7c8c8;stroke-width:0.25}
		.st5 {fill:#5b9bd5;fill-opacity:0.22;filter:url(#filter_2)}
		.st6 {fill:#ffffff}
		.st7 {fill:none;fill-rule:evenodd;font-size:12px;overflow:visible;stroke-linecap:square;stroke-miterlimit:3}
	]]>
	</style>

	<defs id="Filters">
		<filter id="filter_2">
			<feGaussianBlur stdDeviation="2"/>
		</filter>
	</defs>
	<g v:mID="0" v:index="1" v:groupContext="foregroundPage">
		<title>页-1</title>
		<v:pageProperties v:drawingScale="0.0393701" v:pageScale="0.0393701" v:drawingUnits="24" v:shadowOffsetX="8.50394"
				v:shadowOffsetY="-8.50394"/>
		<g id="group775-1" transform="translate(3.35402,-1.20221)" v:mID="775" v:groupContext="group">
			<v:custProps>
				<v:cp v:nameU="AssetNumber" v:lbl="资产号" v:prompt="" v:type="0" v:format="" v:sortKey="Asset" v:invis="false"
						v:ask="false" v:langID="2052" v:cal="0"/>
				<v:cp v:nameU="SerialNumber" v:lbl="序列号" v:prompt="" v:type="0" v:format="" v:sortKey="Asset" v:invis="false"
						v:ask="false" v:langID="2052" v:cal="0"/>
				<v:cp v:nameU="Location" v:lbl="位置" v:prompt="" v:type="0" v:format="" v:sortKey="Asset" v:invis="false"
						v:ask="false" v:langID="2052" v:cal="0"/>
				<v:cp v:nameU="Building" v:lbl="构建" v:prompt="" v:type="0" v:format="" v:sortKey="Asset" v:invis="false"
						v:ask="false" v:langID="2052" v:cal="0"/>
				<v:cp v:nameU="Room" v:lbl="空间" v:prompt="" v:type="0" v:format="" v:sortKey="Asset" v:invis="false" v:ask="false"
						v:langID="2052" v:cal="0"/>
				<v:cp v:nameU="Manufacturer" v:lbl="制造商" v:prompt="" v:type="0" v:format="" v:sortKey="Equipment" v:invis="false"
						v:ask="false" v:langID="2052" v:cal="0"/>
				<v:cp v:nameU="ProductNumber" v:lbl="产品编号" v:prompt="" v:type="0" v:format="" v:sortKey="Equipment" v:invis="false"
						v:ask="false" v:langID="2052" v:cal="0"/>
				<v:cp v:nameU="PartNumber" v:lbl="部件号" v:prompt="" v:type="0" v:format="" v:sortKey="Equipment" v:invis="false"
						v:ask="false" v:langID="2052" v:cal="0"/>
				<v:cp v:nameU="ProductDescription" v:lbl="产品说明" v:prompt="" v:type="0" v:format="" v:sortKey="Equipment"
						v:invis="false" v:ask="false" v:langID="2052" v:cal="0"/>
				<v:cp v:nameU="NetworkName" v:lbl="网络名称" v:prompt="" v:type="0" v:format="" v:sortKey="Network" v:invis="false"
						v:ask="false" v:langID="2052" v:cal="0"/>
				<v:cp v:nameU="IPAddress" v:lbl="IP 地址" v:prompt="" v:type="0" v:format="" v:sortKey="Network" v:invis="false"
						v:ask="false" v:langID="2052" v:cal="0"/>
				<v:cp v:nameU="SubnetMask" v:lbl="子网掩码" v:prompt="" v:type="0" v:format="" v:sortKey="Network" v:invis="false"
						v:ask="false" v:langID="2052" v:cal="0"/>
				<v:cp v:nameU="AdminInterface" v:lbl="管理接口" v:prompt="" v:type="0" v:format="" v:sortKey="Network" v:invis="false"
						v:ask="false" v:langID="2052" v:cal="0"/>
				<v:cp v:nameU="NumberofPorts" v:lbl="端口数目" v:prompt="" v:type="0" v:format="" v:sortKey="Network" v:invis="false"
						v:ask="false" v:langID="2052" v:cal="0"/>
				<v:cp v:nameU="CommunityString" v:lbl="团体字符串" v:prompt="" v:type="0" v:format="" v:sortKey="Network"
						v:invis="false" v:ask="false" v:langID="2052" v:cal="0"/>
				<v:cp v:nameU="NetworkDescription" v:lbl="网络说明" v:prompt="" v:type="0" v:format="" v:sortKey="Network"
						v:invis="false" v:ask="false" v:langID="2052" v:cal="0"/>
				<v:cp v:nameU="MACAddress" v:lbl="MAC 地址" v:prompt="" v:type="0" v:format="" v:sortKey="Network" v:invis="false"
						v:ask="false" v:langID="2052" v:cal="0"/>
				<v:cp v:nameU="CPU" v:lbl="CPU" v:prompt="" v:type="0" v:format="" v:sortKey="Workstation" v:invis="false"
						v:ask="false" v:langID="2052" v:cal="0"/>
				<v:cp v:nameU="Memory" v:lbl="内存" v:prompt="" v:type="0" v:format="" v:sortKey="Workstation" v:invis="false"
						v:ask="false" v:langID="2052" v:cal="0"/>
				<v:cp v:nameU="OperatingSystem" v:lbl="操作系统" v:prompt="" v:type="0" v:format="" v:sortKey="Workstation"
						v:invis="false" v:ask="false" v:langID="2052" v:cal="0"/>
				<v:cp v:nameU="HardDriveSize" v:lbl="硬盘容量" v:prompt="" v:type="0" v:format="" v:sortKey="Workstation"
						v:invis="false" v:ask="false" v:langID="2052" v:cal="0"/>
				<v:cp v:nameU="ShapeClass" v:lbl="ShapeClass" v:prompt="" v:type="0" v:format="" v:sortKey="" v:invis="true"
						v:ask="false" v:langID="2052" v:cal="0" v:val="VT4(设备)"/>
				<v:cp v:nameU="ShapeType" v:lbl="ShapeType" v:prompt="" v:type="0" v:format="" v:sortKey="" v:invis="true"
						v:ask="false" v:langID="2052" v:cal="0" v:val="VT4(终端)"/>
			</v:custProps>
			<v:userDefs>
				<v:ud v:nameU="visVersion" v:prompt="" v:val="VT0(15):26"/>
				<v:ud v:nameU="ShapeClass" v:prompt="" v:val="VT0(5):26"/>
				<v:ud v:nameU="SolSH" v:prompt="" v:val="VT15({BF0433D9-CD73-4EB5-8390-8653BE590246}):41"/>
				<v:ud v:nameU="visLegendShape" v:prompt="" v:val="VT0(2):26"/>
			</v:userDefs>
			<title>终端</title>
			<g id="shape776-2" v:mID="776" v:groupContext="shape" transform="translate(0,-4.14563)">
				<title>工作表.776</title>
				<g id="shadow776-3" v:groupContext="shadow" v:shadowOffsetX="0.345598" v:shadowOffsetY="-1.97279" v:shadowType="1"
						transform="matrix(1,0,0,1,0.345598,1.97279)" class="st1">
					<path d="M67.46 9.49 L4.12 9.49 L4.12 51.76 L67.46 51.76 L67.46 9.49 ZM70.87 72.07 L60.24 58.74 L10.63 58.74
								 L0 72.07 L70.87 72.07 ZM41 51.76 L29.87 51.76 L29.87 58.74 L41 58.74 L41 51.76 Z" class="st2"/>
				</g>
				<path d="M67.46 9.49 L4.12 9.49 L4.12 51.76 L67.46 51.76 L67.46 9.49 ZM70.87 72.07 L60.24 58.74 L10.63 58.74 L0 72.07
							 L70.87 72.07 ZM41 51.76 L29.87 51.76 L29.87 58.74 L41 58.74 L41 51.76 Z" class="st3"/>
			</g>
			<g id="shape777-7" v:mID="777" v:groupContext="shape" transform="translate(8.22949,-28.2604)">
				<title>工作表.777</title>
				<v:userDefs>
					<v:ud v:nameU="SurroundingRegionColor" v:prompt="" v:val="VT5(1)"/>
					<v:ud v:nameU="SurroundingRegionColor" v:prompt="" v:val="VT5(#5b9bd5)"/>
				</v:userDefs>
				<g id="shadow777-8" v:groupContext="shadow" v:shadowOffsetX="0.345598" v:shadowOffsetY="-1.97279" v:shadowType="1"
						transform="matrix(1,0,0,1,0.345598,1.97279)" class="st1">
					<path d="M55.21 37.8 L0 37.8 L0 72.07 L55.21 72.07 L55.21 37.8 Z" class="st2"/>
				</g>
				<path d="M55.21 37.8 L0 37.8 L0 72.07 L55.21 72.07 L55.21 37.8 Z" class="st4"/>
			</g>
			<g id="shape778-12" v:mID="778" v:groupContext="shape" transform="translate(9.64422,-6.8964)">
				<title>工作表.778</title>
				<v:userDefs>
					<v:ud v:nameU="SurroundingRegionColor" v:prompt="" v:val="VT5(1)"/>
					<v:ud v:nameU="SurroundingRegionColor" v:prompt="" v:val="VT5(#5b9bd5)"/>
				</v:userDefs>
				<g id="shadow778-13" v:groupContext="shadow" v:shadowOffsetX="0.345598" v:shadowOffsetY="-1.97279" v:shadowType="1"
						transform="matrix(1,0,0,1,0.345598,1.97279)" class="st1">
					<path d="M48.39 66.9 L45.24 66.9 L47.01 68.86 L50.4 68.86 L48.39 66.9 ZM44.83 63.42 L42.12 63.42 L44.01 65.53
								 L46.99 65.53 L44.83 63.42 ZM43.55 66.9 L40.4 66.9 L41.78 68.86 L45.18 68.86 L43.55 66.9 ZM40.66
								 63.42 L37.94 63.42 L39.43 65.53 L42.41 65.53 L40.66 63.42 ZM38.7 66.9 L35.55 66.9 L36.56 68.86 L39.96
								 68.86 L38.7 66.9 ZM36.49 63.42 L33.78 63.42 L34.86 65.57 L37.85 65.57 L36.49 63.42 ZM33.86 66.9
								 L30.71 66.9 L31.34 68.86 L34.73 68.86 L33.86 66.9 ZM32.38 63.57 L29.64 63.57 L30.28 65.57 L33.27
								 65.57 L32.38 63.57 ZM29.01 66.9 L25.86 66.9 L26.11 68.86 L29.51 68.86 L29.01 66.9 ZM28.22 63.74
								 L25.46 63.74 L25.71 65.7 L28.71 65.7 L28.22 63.74 ZM23.98 63.74 L21.23 63.74 L21.1 65.7 L24.1 65.7
								 L23.98 63.74 ZM24.17 66.9 L21.02 66.9 L20.89 68.86 L24.29 68.86 L24.17 66.9 ZM19.75 63.74 L17 63.74
								 L16.49 65.7 L19.49 65.7 L19.75 63.74 ZM19.33 66.9 L16.18 66.9 L15.67 68.86 L19.06 68.86 L19.33 66.9
								 ZM36.6 70.11 L14.38 70.11 L13.8 72.07 L37.56 72.07 L36.6 70.11 ZM15.51 63.74 L12.76 63.74 L11.88
								 65.7 L14.87 65.7 L15.51 63.74 ZM14.48 66.9 L11.33 66.9 L10.44 68.86 L13.84 68.86 L14.48 66.9 ZM11.28
								 63.74 L8.53 63.74 L7.26 65.7 L10.26 65.7 L11.28 63.74 ZM9.64 66.9 L6.49 66.9 L5.22 68.86 L8.62 68.86
								 L9.64 66.9 ZM7.05 63.74 L4.29 63.74 L2.65 65.7 L5.65 65.7 L7.05 63.74 ZM4.79 66.9 L1.64 66.9 L0
								 68.86 L3.4 68.86 L4.79 66.9 Z" class="st5"/>
				</g>
				<path d="M48.39 66.9 L45.24 66.9 L47.01 68.86 L50.4 68.86 L48.39 66.9 ZM44.83 63.42 L42.12 63.42 L44.01 65.53 L46.99
							 65.53 L44.83 63.42 ZM43.55 66.9 L40.4 66.9 L41.78 68.86 L45.18 68.86 L43.55 66.9 ZM40.66 63.42 L37.94
							 63.42 L39.43 65.53 L42.41 65.53 L40.66 63.42 ZM38.7 66.9 L35.55 66.9 L36.56 68.86 L39.96 68.86 L38.7
							 66.9 ZM36.49 63.42 L33.78 63.42 L34.86 65.57 L37.85 65.57 L36.49 63.42 ZM33.86 66.9 L30.71 66.9 L31.34
							 68.86 L34.73 68.86 L33.86 66.9 ZM32.38 63.57 L29.64 63.57 L30.28 65.57 L33.27 65.57 L32.38 63.57 ZM29.01
							 66.9 L25.86 66.9 L26.11 68.86 L29.51 68.86 L29.01 66.9 ZM28.22 63.74 L25.46 63.74 L25.71 65.7 L28.71
							 65.7 L28.22 63.74 ZM23.98 63.74 L21.23 63.74 L21.1 65.7 L24.1 65.7 L23.98 63.74 ZM24.17 66.9 L21.02
							 66.9 L20.89 68.86 L24.29 68.86 L24.17 66.9 ZM19.75 63.74 L17 63.74 L16.49 65.7 L19.49 65.7 L19.75 63.74
							 ZM19.33 66.9 L16.18 66.9 L15.67 68.86 L19.06 68.86 L19.33 66.9 ZM36.6 70.11 L14.38 70.11 L13.8 72.07
							 L37.56 72.07 L36.6 70.11 ZM15.51 63.74 L12.76 63.74 L11.88 65.7 L14.87 65.7 L15.51 63.74 ZM14.48 66.9
							 L11.33 66.9 L10.44 68.86 L13.84 68.86 L14.48 66.9 ZM11.28 63.74 L8.53 63.74 L7.26 65.7 L10.26 65.7 L11.28
							 63.74 ZM9.64 66.9 L6.49 66.9 L5.22 68.86 L8.62 68.86 L9.64 66.9 ZM7.05 63.74 L4.29 63.74 L2.65 65.7
							 L5.65 65.7 L7.05 63.74 ZM4.79 66.9 L1.64 66.9 L0 68.86 L3.4 68.86 L4.79 66.9 Z" class="st6"/>
			</g>
		</g>
	</g>
</svg>
