<svg width="52" height="52" viewBox="0 0 52 52" fill="none" xmlns="http://www.w3.org/2000/svg">
<path fill-rule="evenodd" clip-rule="evenodd" d="M3 3H29C30.1046 3 31 3.89543 31 5V21H23C21.8954 21 21 21.8954 21 23V31H3C1.89543 31 1 30.1046 1 29V5C1 3.89543 1.89543 3 3 3ZM21 31V47C21 48.1046 21.8954 49 23 49H49C50.1046 49 51 48.1046 51 47V23C51 21.8954 50.1046 21 49 21H31V29C31 30.1046 30.1046 31 29 31H21Z" fill="#F2F7FF"/>
<path d="M29 2.5H3V3.5H29V2.5ZM31.5 5C31.5 3.61929 30.3807 2.5 29 2.5V3.5C29.8284 3.5 30.5 4.17157 30.5 5H31.5ZM31.5 21V5H30.5V21H31.5ZM31 20.5H23V21.5H31V20.5ZM23 20.5C21.6193 20.5 20.5 21.6193 20.5 23H21.5C21.5 22.1716 22.1716 21.5 23 21.5V20.5ZM20.5 23V31H21.5V23H20.5ZM3 31.5H21V30.5H3V31.5ZM0.5 29C0.5 30.3807 1.61929 31.5 3 31.5V30.5C2.17157 30.5 1.5 29.8284 1.5 29H0.5ZM0.5 5V29H1.5V5H0.5ZM3 2.5C1.61929 2.5 0.5 3.61929 0.5 5H1.5C1.5 4.17157 2.17157 3.5 3 3.5V2.5ZM20.5 31V47H21.5V31H20.5ZM20.5 47C20.5 48.3807 21.6193 49.5 23 49.5V48.5C22.1716 48.5 21.5 47.8284 21.5 47H20.5ZM23 49.5H49V48.5H23V49.5ZM49 49.5C50.3807 49.5 51.5 48.3807 51.5 47H50.5C50.5 47.8284 49.8284 48.5 49 48.5V49.5ZM51.5 47V23H50.5V47H51.5ZM51.5 23C51.5 21.6193 50.3807 20.5 49 20.5V21.5C49.8284 21.5 50.5 22.1716 50.5 23H51.5ZM49 20.5H31V21.5H49V20.5ZM31.5 29V21H30.5V29H31.5ZM29 31.5C30.3807 31.5 31.5 30.3807 31.5 29H30.5C30.5 29.8284 29.8284 30.5 29 30.5V31.5ZM21 31.5H29V30.5H21V31.5Z" fill="#598CE2"/>
</svg>
