<svg width="52" height="52" viewBox="0 0 52 52" fill="none" xmlns="http://www.w3.org/2000/svg">
<path d="M6 15.9098V6.43609C6 5.08271 7.11111 4 8.5 4C9.88889 4 11 5.08271 11 6.43609V16" stroke="#598CE2" stroke-miterlimit="10"/>
<path d="M49 16H3C1.89543 16 1 16.8954 1 18V46C1 47.1046 1.89543 48 3 48H49C50.1046 48 51 47.1046 51 46V18C51 16.8954 50.1046 16 49 16Z" fill="#F2F7FF" stroke="#598CE2"/>
<path d="M33.3 33.8C34.9017 33.8 36.2 32.5016 36.2 30.9C36.2 29.2984 34.9017 28 33.3 28C31.6984 28 30.4 29.2984 30.4 30.9C30.4 32.5016 31.6984 33.8 33.3 33.8Z" fill="white" stroke="#598CE2" stroke-miterlimit="10"/>
<path d="M22.9 33.8C24.5016 33.8 25.8 32.5016 25.8 30.9C25.8 29.2984 24.5016 28 22.9 28C21.2984 28 20 29.2984 20 30.9C20 32.5016 21.2984 33.8 22.9 33.8Z" fill="white" stroke="#598CE2" stroke-miterlimit="10"/>
<path d="M43.8 33.8C45.4017 33.8 46.7 32.5016 46.7 30.9C46.7 29.2984 45.4017 28 43.8 28C42.1984 28 40.9 29.2984 40.9 30.9C40.9 32.5016 42.1984 33.8 43.8 33.8Z" fill="white" stroke="#598CE2" stroke-miterlimit="10"/>
</svg>
