<svg width="52" height="52" viewBox="0 0 52 52" fill="none" xmlns="http://www.w3.org/2000/svg">
<path d="M44 42L44 10C44 8.89543 43.1046 8 42 8L10 8C8.89543 8 8 8.89543 8 10L8 42C8 43.1046 8.89543 44 10 44L42 44C43.1046 44 44 43.1046 44 42Z" stroke="#598CE2"/>
<path d="M15 48L15 39C15 37.8954 14.1046 37 13 37L4 37C2.89543 37 2 37.8954 2 39L2 48C2 49.1046 2.89543 50 4 50L13 50C14.1046 50 15 49.1046 15 48Z" fill="#F2F7FF" stroke="#598CE2"/>
<path d="M39 50L48 50C49.1046 50 50 49.1046 50 48L50 39C50 37.8954 49.1046 37 48 37L39 37C37.8954 37 37 37.8954 37 39L37 48C37 49.1046 37.8954 50 39 50Z" fill="#F2F7FF" stroke="#598CE2"/>
<path d="M4 15L13 15C14.1046 15 15 14.1046 15 13L15 4C15 2.89543 14.1046 2 13 2L4 2C2.89543 2 2 2.89543 2 4L2 13C2 14.1046 2.89543 15 4 15Z" fill="#F2F7FF" stroke="#598CE2"/>
<path d="M50 13L50 4C50 2.89543 49.1046 2 48 2L39 2C37.8954 2 37 2.89543 37 4L37 13C37 14.1046 37.8954 15 39 15L48 15C49.1046 15 50 14.1046 50 13Z" fill="#F2F7FF" stroke="#598CE2"/>
</svg>
