<?xml version="1.0" encoding="UTF-8"?>
<svg width="32px" height="32px" viewBox="0 0 32 32" version="1.1" xmlns="http://www.w3.org/2000/svg" xmlns:xlink="http://www.w3.org/1999/xlink">
    <title>nav-logo</title>
    <g id="页面-1" stroke="none" stroke-width="1" fill="none" fill-rule="evenodd">
        <g id="编组" fill="#FFFFFF" transform="translate(0.000000, 5.000000)">
            <path d="M9.5512,18.1496 C8.7542,18.4096 7.9252,18.5466 7.0932,18.5466 L0.7472,18.5466 L0.0002,22.3456 L6.3402,22.3456 C8.1862,22.3456 10.0142,21.9006 11.7062,21.0986 C10.8022,20.2716 10.0772,19.2796 9.5512,18.1496 M19.5092,6.1436 C19.4082,5.8096 19.2842,5.4806 19.1432,5.1676 C18.6692,4.0856 17.9822,3.1296 17.1252,2.3506 C16.6402,1.9046 16.1052,1.5176 15.5202,1.1936 C14.1662,0.4406 12.5532,0.0156 10.7602,0.0156 L4.4152,0.0156 L3.6622,3.8146 L10.0082,3.8146 C10.7982,3.8146 11.5362,3.9366 12.2022,4.1706 C12.8732,4.4036 13.4672,4.7426 13.9872,5.1676 C14.9732,5.9686 15.6552,7.0936 15.9252,8.4086 C16.0142,8.8336 16.0652,9.2786 16.0602,9.7406 C16.0652,10.2076 16.0152,10.6906 15.9162,11.1836 C15.8132,11.7086 15.6572,12.2286 15.4522,12.7276 C15.4632,12.9766 15.4962,13.2206 15.5462,13.4546 C15.7622,14.4786 16.2802,15.3476 17.0502,15.9746 C17.1842,16.0866 17.3262,16.1866 17.4722,16.2826 C18.5712,14.7586 19.3562,13.0246 19.7192,11.1836 C20.0802,9.3696 19.9822,7.6556 19.5092,6.1436" id="Fill-1"></path>
            <path d="M23.6483,0.0002 C21.8023,0.0002 19.9743,0.4452 18.2823,1.2472 C19.1863,2.0802 19.9163,3.0722 20.4423,4.2022 C21.2393,3.9422 22.0623,3.8042 22.8953,3.8042 L31.1293,3.8042 L31.8823,0.0002 L23.6483,0.0002 Z M19.9803,18.5372 C19.1903,18.5372 18.4533,18.4092 17.7873,18.1762 C17.1153,17.9472 16.5213,17.6082 16.0013,17.1842 C15.0153,16.3772 14.3393,15.2532 14.0633,13.9422 C13.9733,13.5182 13.9233,13.0722 13.9283,12.6102 C13.9223,12.1442 13.9733,11.6612 14.0713,11.1732 C14.1753,10.6422 14.3293,10.1272 14.5353,9.6342 C14.5243,9.3802 14.4913,9.1362 14.4413,8.8972 C14.2263,7.8682 13.7083,7.0032 12.9433,6.3772 C12.8093,6.2662 12.6633,6.1592 12.5153,6.0692 C11.4163,7.5972 10.6303,9.3322 10.2673,11.1732 C9.9073,12.9822 10.0053,14.6952 10.4793,16.2082 C10.5803,16.5422 10.7033,16.8712 10.8443,17.1842 C11.3193,18.2612 12.0053,19.2212 12.8683,20.0012 C13.3483,20.4412 13.8833,20.8282 14.4683,21.1522 C15.8223,21.9052 17.4343,22.3352 19.2273,22.3352 L27.4613,22.3352 L28.2143,18.5372 L19.9803,18.5372 Z" id="Fill-3"></path>
        </g>
    </g>
</svg>